<svg xmlns="http://www.w3.org/2000/svg" xmlns:xlink="http://www.w3.org/1999/xlink" width="500" zoomAndPan="magnify" viewBox="0 0 375 374.999991" height="500" preserveAspectRatio="xMidYMid meet" version="1.0"><defs><g/><clipPath id="4cec411dcb"><path d="M 139.066406 170.332031 L 235.816406 170.332031 L 235.816406 246 L 139.066406 246 Z M 139.066406 170.332031 " clip-rule="nonzero"/></clipPath></defs><g clip-path="url(#4cec411dcb)"><path fill="#00c4cc" d="M 141.753906 225.25 C 147.011719 225.25 152.273438 225.25 157.53125 225.25 C 158.433594 225.25 159.171875 224.644531 159.433594 223.804688 C 162.722656 213.316406 166.007812 202.832031 169.296875 192.34375 C 168.027344 192.34375 166.761719 192.34375 165.492188 192.34375 C 169.4375 203.269531 173.382812 214.191406 177.328125 225.117188 C 177.953125 226.855469 180.621094 227.121094 181.132812 225.117188 C 185.515625 207.855469 189.898438 190.597656 194.28125 173.335938 C 193.011719 173.335938 191.746094 173.335938 190.476562 173.335938 C 194.640625 196.933594 198.804688 220.527344 202.96875 244.121094 C 203.257812 245.769531 205.855469 246.074219 206.574219 244.59375 C 209.738281 238.070312 212.90625 231.546875 216.070312 225.023438 C 216.859375 223.402344 213.621094 225.25 215.753906 225.25 C 217.828125 225.25 219.902344 225.25 221.976562 225.25 C 225.699219 225.25 229.421875 225.25 233.140625 225.25 C 235.683594 225.25 235.683594 221.316406 233.140625 221.316406 C 227.003906 221.316406 220.871094 221.316406 214.734375 221.316406 C 214.082031 221.316406 213.324219 221.679688 213.03125 222.289062 C 209.742188 229.0625 206.457031 235.835938 203.167969 242.609375 C 204.371094 242.765625 205.570312 242.921875 206.773438 243.078125 C 202.609375 219.484375 198.445312 195.886719 194.28125 172.289062 C 193.933594 170.328125 190.933594 170.492188 190.476562 172.289062 C 186.09375 189.550781 181.710938 206.808594 177.328125 224.070312 C 178.59375 224.070312 179.863281 224.070312 181.132812 224.070312 C 177.1875 213.144531 173.242188 202.222656 169.296875 191.296875 C 168.644531 189.488281 166.097656 189.367188 165.492188 191.296875 C 162.207031 201.785156 158.917969 212.273438 155.628906 222.757812 C 156.265625 222.277344 156.898438 221.796875 157.53125 221.316406 C 152.273438 221.316406 147.011719 221.316406 141.753906 221.316406 C 139.207031 221.316406 139.207031 225.25 141.753906 225.25 Z M 141.753906 225.25 " fill-opacity="1" fill-rule="nonzero"/></g><g fill="#0b70e3" fill-opacity="1"><g transform="translate(59.210312, 217.124986)"><g><path d="M 1.125 -12.390625 C 1.125 -14.816406 1.628906 -16.976562 2.640625 -18.875 C 3.660156 -20.78125 5.101562 -22.265625 6.96875 -23.328125 C 8.832031 -24.390625 10.976562 -24.921875 13.40625 -24.921875 C 16.488281 -24.921875 19.078125 -24.097656 21.171875 -22.453125 C 23.273438 -20.804688 24.628906 -18.570312 25.234375 -15.75 L 17.84375 -15.75 C 17.40625 -16.6875 16.796875 -17.398438 16.015625 -17.890625 C 15.234375 -18.378906 14.328125 -18.625 13.296875 -18.625 C 11.710938 -18.625 10.445312 -18.054688 9.5 -16.921875 C 8.550781 -15.785156 8.078125 -14.273438 8.078125 -12.390625 C 8.078125 -10.472656 8.550781 -8.945312 9.5 -7.8125 C 10.445312 -6.6875 11.710938 -6.125 13.296875 -6.125 C 14.328125 -6.125 15.234375 -6.367188 16.015625 -6.859375 C 16.796875 -7.347656 17.40625 -8.0625 17.84375 -9 L 25.234375 -9 C 24.628906 -6.175781 23.273438 -3.941406 21.171875 -2.296875 C 19.078125 -0.648438 16.488281 0.171875 13.40625 0.171875 C 10.976562 0.171875 8.832031 -0.359375 6.96875 -1.421875 C 5.101562 -2.484375 3.660156 -3.960938 2.640625 -5.859375 C 1.628906 -7.765625 1.125 -9.941406 1.125 -12.390625 Z M 1.125 -12.390625 "/></g></g></g><g fill="#0b70e3" fill-opacity="1"><g transform="translate(85.734316, 217.124986)"><g><path d="M 13.796875 0.25 C 11.484375 0.25 9.359375 -0.289062 7.421875 -1.375 C 5.484375 -2.46875 3.945312 -3.972656 2.8125 -5.890625 C 1.6875 -7.816406 1.125 -9.992188 1.125 -12.421875 C 1.125 -14.847656 1.6875 -17.023438 2.8125 -18.953125 C 3.945312 -20.878906 5.484375 -22.378906 7.421875 -23.453125 C 9.359375 -24.523438 11.484375 -25.0625 13.796875 -25.0625 C 16.128906 -25.0625 18.253906 -24.523438 20.171875 -23.453125 C 22.097656 -22.378906 23.617188 -20.878906 24.734375 -18.953125 C 25.859375 -17.023438 26.421875 -14.847656 26.421875 -12.421875 C 26.421875 -9.992188 25.859375 -7.816406 24.734375 -5.890625 C 23.617188 -3.972656 22.09375 -2.46875 20.15625 -1.375 C 18.21875 -0.289062 16.097656 0.25 13.796875 0.25 Z M 13.796875 -6.125 C 15.546875 -6.125 16.925781 -6.695312 17.9375 -7.84375 C 18.945312 -8.988281 19.453125 -10.515625 19.453125 -12.421875 C 19.453125 -14.378906 18.945312 -15.925781 17.9375 -17.0625 C 16.925781 -18.195312 15.546875 -18.765625 13.796875 -18.765625 C 12.015625 -18.765625 10.625 -18.195312 9.625 -17.0625 C 8.625 -15.925781 8.125 -14.378906 8.125 -12.421875 C 8.125 -10.484375 8.625 -8.945312 9.625 -7.8125 C 10.625 -6.6875 12.015625 -6.125 13.796875 -6.125 Z M 13.796875 -6.125 "/></g></g></g><g fill="#0b70e3" fill-opacity="1"><g transform="translate(113.273091, 217.124986)"><g><path d="M 20.546875 -24.671875 L 20.546875 -19.21875 L 13.96875 -19.21875 L 13.96875 0 L 7.109375 0 L 7.109375 -19.21875 L 0.59375 -19.21875 L 0.59375 -24.671875 Z M 20.546875 -24.671875 "/></g></g></g><g fill="#0b70e3" fill-opacity="1"><g transform="translate(134.408313, 217.124986)"><g><path d="M 11.265625 0.25 C 8.398438 0.25 6.046875 -0.429688 4.203125 -1.796875 C 2.359375 -3.160156 1.363281 -5.117188 1.21875 -7.671875 L 8.546875 -7.671875 C 8.609375 -6.804688 8.859375 -6.175781 9.296875 -5.78125 C 9.742188 -5.382812 10.320312 -5.1875 11.03125 -5.1875 C 11.65625 -5.1875 12.171875 -5.34375 12.578125 -5.65625 C 12.984375 -5.96875 13.1875 -6.40625 13.1875 -6.96875 C 13.1875 -7.6875 12.847656 -8.242188 12.171875 -8.640625 C 11.503906 -9.035156 10.410156 -9.476562 8.890625 -9.96875 C 7.273438 -10.507812 5.972656 -11.03125 4.984375 -11.53125 C 3.992188 -12.03125 3.128906 -12.765625 2.390625 -13.734375 C 1.660156 -14.703125 1.296875 -15.96875 1.296875 -17.53125 C 1.296875 -19.125 1.691406 -20.484375 2.484375 -21.609375 C 3.273438 -22.742188 4.367188 -23.601562 5.765625 -24.1875 C 7.171875 -24.769531 8.757812 -25.0625 10.53125 -25.0625 C 13.40625 -25.0625 15.695312 -24.390625 17.40625 -23.046875 C 19.125 -21.703125 20.039062 -19.816406 20.15625 -17.390625 L 12.703125 -17.390625 C 12.679688 -18.140625 12.453125 -18.703125 12.015625 -19.078125 C 11.585938 -19.453125 11.035156 -19.640625 10.359375 -19.640625 C 9.847656 -19.640625 9.425781 -19.484375 9.09375 -19.171875 C 8.769531 -18.867188 8.609375 -18.441406 8.609375 -17.890625 C 8.609375 -17.421875 8.785156 -17.015625 9.140625 -16.671875 C 9.503906 -16.335938 9.957031 -16.046875 10.5 -15.796875 C 11.039062 -15.554688 11.832031 -15.25 12.875 -14.875 C 14.4375 -14.332031 15.722656 -13.800781 16.734375 -13.28125 C 17.753906 -12.757812 18.628906 -12.023438 19.359375 -11.078125 C 20.097656 -10.128906 20.46875 -8.929688 20.46875 -7.484375 C 20.46875 -6.015625 20.097656 -4.695312 19.359375 -3.53125 C 18.628906 -2.363281 17.570312 -1.441406 16.1875 -0.765625 C 14.800781 -0.0859375 13.160156 0.25 11.265625 0.25 Z M 11.265625 0.25 "/></g></g></g><g fill="#00c4cc" fill-opacity="1"><g transform="translate(206.376905, 218.124977)"><g><path d="M 5.046875 -2.21875 L 12.359375 -2.21875 L 12.359375 0 L 2.3125 0 L 2.3125 -20.90625 L 5.046875 -20.90625 Z M 5.046875 -2.21875 "/></g></g></g><g fill="#00c4cc" fill-opacity="1"><g transform="translate(219.336892, 218.124977)"><g><path d="M 14.671875 -4.65625 L 5.546875 -4.65625 L 3.875 0 L 0.984375 0 L 8.546875 -20.796875 L 11.703125 -20.796875 L 19.234375 0 L 16.34375 0 Z M 13.890625 -6.875 L 10.109375 -17.4375 L 6.328125 -6.875 Z M 13.890625 -6.875 "/></g></g></g><g fill="#00c4cc" fill-opacity="1"><g transform="translate(239.556873, 218.124977)"><g><path d="M 12.78125 -10.765625 C 13.539062 -10.648438 14.234375 -10.34375 14.859375 -9.84375 C 15.492188 -9.34375 15.992188 -8.722656 16.359375 -7.984375 C 16.734375 -7.242188 16.921875 -6.453125 16.921875 -5.609375 C 16.921875 -4.546875 16.648438 -3.585938 16.109375 -2.734375 C 15.566406 -1.890625 14.78125 -1.222656 13.75 -0.734375 C 12.71875 -0.242188 11.503906 0 10.109375 0 L 2.3125 0 L 2.3125 -20.90625 L 9.8125 -20.90625 C 11.226562 -20.90625 12.4375 -20.671875 13.4375 -20.203125 C 14.4375 -19.734375 15.1875 -19.097656 15.6875 -18.296875 C 16.1875 -17.492188 16.4375 -16.59375 16.4375 -15.59375 C 16.4375 -14.351562 16.101562 -13.328125 15.4375 -12.515625 C 14.769531 -11.710938 13.882812 -11.128906 12.78125 -10.765625 Z M 5.046875 -11.875 L 9.625 -11.875 C 10.90625 -11.875 11.894531 -12.175781 12.59375 -12.78125 C 13.300781 -13.382812 13.65625 -14.210938 13.65625 -15.265625 C 13.65625 -16.328125 13.300781 -17.15625 12.59375 -17.75 C 11.894531 -18.351562 10.882812 -18.65625 9.5625 -18.65625 L 5.046875 -18.65625 Z M 9.875 -2.25 C 11.226562 -2.25 12.285156 -2.566406 13.046875 -3.203125 C 13.804688 -3.847656 14.1875 -4.738281 14.1875 -5.875 C 14.1875 -7.039062 13.785156 -7.957031 12.984375 -8.625 C 12.191406 -9.289062 11.125 -9.625 9.78125 -9.625 L 5.046875 -9.625 L 5.046875 -2.25 Z M 9.875 -2.25 "/></g></g></g></svg>