<svg xmlns="http://www.w3.org/2000/svg" xmlns:xlink="http://www.w3.org/1999/xlink" width="500" zoomAndPan="magnify" viewBox="0 0 375 374.999991" height="500" preserveAspectRatio="xMidYMid meet" version="1.0"><defs><g/><clipPath id="eb9559884d"><path d="M 107 127.027344 L 267.964844 127.027344 L 267.964844 169 L 107 169 Z M 107 127.027344 " clip-rule="nonzero"/></clipPath></defs><g clip-path="url(#eb9559884d)"><path fill="#ff3131" d="M 108.195312 158.28125 C 115.902344 158.777344 123.65625 158.894531 131.363281 159.085938 C 139.023438 159.273438 146.660156 159.484375 154.316406 159.652344 C 155.855469 159.675781 157.4375 159.605469 158.832031 158.894531 C 160.25 158.164062 161.222656 156.910156 162.167969 155.65625 C 164.507812 152.605469 166.847656 149.535156 169.1875 146.484375 C 168.480469 146.390625 167.769531 146.292969 167.0625 146.199219 C 169.828125 153.078125 172.546875 159.960938 175.289062 166.839844 C 175.691406 167.855469 177.511719 168.234375 177.746094 166.839844 C 179.898438 154.285156 182 141.730469 184.105469 129.179688 C 183.183594 129.179688 182.285156 129.179688 181.363281 129.179688 C 182.734375 135.964844 183.988281 142.75 185.335938 149.535156 C 186.5625 155.796875 187.582031 162.230469 190.464844 167.972656 C 191.101562 169.226562 193.113281 168.894531 193.445312 167.59375 C 194.175781 164.710938 194.886719 161.851562 195.617188 158.964844 C 195.972656 157.59375 196.304688 156.246094 196.660156 154.875 C 196.894531 153.929688 197.039062 152.371094 197.863281 151.730469 C 198.714844 151.046875 200.441406 151.304688 201.527344 151.257812 C 202.5 151.210938 203.492188 151.210938 204.460938 151.210938 C 210.0625 151.164062 215.667969 151.117188 221.292969 151.09375 C 235.359375 151.046875 236.421875 151 250.488281 150.953125 C 255.785156 150.929688 261.058594 150.738281 266.351562 150.691406 C 268.054688 150.667969 268.054688 148.019531 266.351562 148.042969 C 261.625 148.089844 256.921875 147.925781 252.191406 147.949219 C 245.242188 147.972656 238.316406 147.996094 231.363281 148.042969 C 218.125 148.089844 217.890625 148.136719 204.648438 148.164062 C 203.539062 148.164062 202.449219 148.164062 201.339844 148.136719 C 199.589844 148.089844 197.699219 147.949219 196.164062 148.964844 C 193.773438 150.527344 193.492188 154.214844 192.851562 156.742188 C 192.027344 160.078125 191.175781 163.410156 190.347656 166.71875 C 191.339844 166.601562 192.332031 166.460938 193.324219 166.34375 C 190.511719 160.738281 189.636719 154.308594 188.359375 148.234375 C 186.964844 141.613281 185.523438 135.042969 184.152344 128.421875 C 183.871094 127.097656 181.648438 127.027344 181.410156 128.421875 C 179.355469 141 177.34375 153.574219 175.3125 166.152344 C 176.140625 166.152344 176.941406 166.152344 177.769531 166.152344 C 174.957031 159.296875 172.144531 152.441406 169.355469 145.585938 C 168.953125 144.617188 167.839844 144.472656 167.226562 145.300781 C 165.191406 147.996094 163.136719 150.714844 161.101562 153.410156 C 160.300781 154.496094 159.496094 155.75 158.382812 156.554688 C 157.109375 157.5 155.476562 157.429688 153.988281 157.40625 C 150.890625 157.335938 147.792969 157.289062 144.71875 157.214844 C 136.160156 157.074219 127.605469 156.933594 119.046875 156.71875 C 115.453125 156.625 111.859375 156.53125 108.265625 156.316406 C 106.941406 156.246094 106.941406 158.1875 108.195312 158.28125 Z M 108.195312 158.28125 " fill-opacity="1" fill-rule="nonzero"/></g><g fill="#004aad" fill-opacity="1"><g transform="translate(137.756934, 212.637262)"><g><path d="M 19.839844 -28.859375 C 19.839844 -32.996094 17.597656 -35.195312 13.507812 -35.195312 L 8.578125 -35.195312 C 4.445312 -35.195312 2.199219 -32.996094 2.199219 -28.859375 L 2.199219 -6.335938 C 2.199219 -2.199219 4.445312 0 8.578125 0 L 13.507812 0 C 17.597656 0 19.839844 -2.199219 19.839844 -6.335938 L 19.839844 -11.085938 C 19.839844 -11.527344 19.578125 -11.789062 19.136719 -11.789062 L 14.738281 -11.789062 C 14.253906 -11.789062 14.035156 -11.527344 14.035156 -11.085938 L 14.035156 -7.566406 C 14.035156 -6.378906 13.417969 -5.808594 12.273438 -5.808594 L 9.988281 -5.808594 C 8.84375 -5.808594 8.226562 -6.378906 8.226562 -7.566406 L 8.226562 -27.628906 C 8.226562 -28.773438 8.800781 -29.386719 9.988281 -29.386719 L 12.273438 -29.386719 C 13.417969 -29.386719 14.035156 -28.773438 14.035156 -27.628906 L 14.035156 -24.109375 C 14.035156 -23.667969 14.253906 -23.40625 14.738281 -23.40625 L 19.136719 -23.40625 C 19.578125 -23.40625 19.839844 -23.667969 19.839844 -24.109375 Z M 19.839844 -28.859375 "/></g></g></g><g fill="#004aad" fill-opacity="1"><g transform="translate(164.197007, 212.637262)"><g><path d="M 2.199219 -6.335938 C 2.199219 -2.199219 4.398438 0 8.535156 0 L 13.460938 0 C 17.597656 0 19.796875 -2.199219 19.796875 -6.335938 L 19.796875 -28.859375 C 19.796875 -32.996094 17.597656 -35.195312 13.460938 -35.195312 L 8.535156 -35.195312 C 4.398438 -35.195312 2.199219 -32.996094 2.199219 -28.859375 Z M 9.8125 -5.675781 C 8.667969 -5.675781 8.050781 -6.246094 8.050781 -7.433594 L 8.050781 -27.761719 C 8.050781 -28.90625 8.667969 -29.519531 9.8125 -29.519531 L 12.363281 -29.519531 C 13.507812 -29.519531 14.121094 -28.90625 14.121094 -27.761719 L 14.121094 -7.433594 C 14.121094 -6.246094 13.507812 -5.675781 12.363281 -5.675781 Z M 9.8125 -5.675781 "/></g></g></g><g fill="#004aad" fill-opacity="1"><g transform="translate(190.593089, 212.637262)"><g><path d="M 2.023438 -35.195312 C 1.582031 -35.195312 1.320312 -34.933594 1.320312 -34.492188 L 1.320312 -30.09375 C 1.320312 -29.652344 1.582031 -29.386719 2.023438 -29.386719 L 7.128906 -29.386719 L 7.128906 -0.703125 C 7.128906 -0.21875 7.390625 0 7.832031 0 L 12.40625 0 C 12.890625 0 13.109375 -0.21875 13.109375 -0.703125 L 13.109375 -29.386719 L 18.214844 -29.386719 C 18.699219 -29.386719 18.917969 -29.652344 18.917969 -30.09375 L 18.917969 -34.492188 C 18.917969 -34.933594 18.699219 -35.195312 18.214844 -35.195312 Z M 2.023438 -35.195312 "/></g></g></g><g fill="#004aad" fill-opacity="1"><g transform="translate(215.229482, 212.637262)"><g><path d="M 8.535156 -35.195312 C 4.445312 -35.195312 2.199219 -32.996094 2.199219 -28.859375 L 2.199219 -18.476562 C 2.199219 -17.640625 2.597656 -17.113281 3.386719 -16.851562 L 13.8125 -13.417969 L 13.8125 -7.566406 C 13.8125 -6.378906 13.199219 -5.808594 12.054688 -5.808594 L 9.941406 -5.808594 C 8.84375 -5.808594 8.183594 -6.378906 8.183594 -7.566406 L 8.183594 -10.953125 C 8.183594 -11.4375 7.964844 -11.660156 7.480469 -11.660156 L 2.902344 -11.660156 C 2.464844 -11.660156 2.199219 -11.4375 2.199219 -10.953125 L 2.199219 -6.335938 C 2.199219 -2.199219 4.445312 0 8.535156 0 L 13.460938 0 C 17.597656 0 19.796875 -2.199219 19.796875 -6.335938 L 19.796875 -16.5 C 19.796875 -17.335938 19.402344 -17.816406 18.652344 -18.125 L 8.183594 -21.558594 L 8.183594 -27.628906 C 8.183594 -28.773438 8.84375 -29.386719 9.941406 -29.386719 L 12.054688 -29.386719 C 13.242188 -29.386719 13.8125 -28.773438 13.8125 -27.628906 L 13.8125 -24.195312 C 13.8125 -23.757812 14.078125 -23.492188 14.519531 -23.492188 L 19.09375 -23.492188 C 19.578125 -23.492188 19.796875 -23.757812 19.796875 -24.195312 L 19.796875 -28.859375 C 19.796875 -32.996094 17.597656 -35.195312 13.460938 -35.195312 Z M 8.535156 -35.195312 "/></g></g></g><g fill="#38b6ff" fill-opacity="1"><g transform="translate(173.554484, 236.148001)"><g><path d="M 0.90625 -7.703125 L 2.6875 -7.703125 L 2.6875 -1.453125 L 6.5625 -1.453125 L 6.5625 0 L 0.90625 0 Z M 0.90625 -7.703125 "/></g></g></g><g fill="#38b6ff" fill-opacity="1"><g transform="translate(182.393784, 236.148001)"><g><path d="M 5.984375 -1.65625 L 2.40625 -1.65625 L 1.734375 0 L -0.09375 0 L 3.328125 -7.703125 L 5.09375 -7.703125 L 8.53125 0 L 6.671875 0 Z M 5.421875 -3 L 4.203125 -5.953125 L 2.984375 -3 Z M 5.421875 -3 "/></g></g></g><g fill="#38b6ff" fill-opacity="1"><g transform="translate(193.013831, 236.148001)"><g><path d="M 6.5625 -4 C 7.007812 -3.863281 7.351562 -3.628906 7.59375 -3.296875 C 7.84375 -2.972656 7.96875 -2.570312 7.96875 -2.09375 C 7.96875 -1.425781 7.707031 -0.910156 7.1875 -0.546875 C 6.664062 -0.179688 5.898438 0 4.890625 0 L 0.90625 0 L 0.90625 -7.703125 L 4.671875 -7.703125 C 5.609375 -7.703125 6.328125 -7.519531 6.828125 -7.15625 C 7.335938 -6.800781 7.59375 -6.316406 7.59375 -5.703125 C 7.59375 -5.328125 7.5 -4.988281 7.3125 -4.6875 C 7.132812 -4.394531 6.882812 -4.164062 6.5625 -4 Z M 2.6875 -6.359375 L 2.6875 -4.546875 L 4.453125 -4.546875 C 4.890625 -4.546875 5.222656 -4.617188 5.453125 -4.765625 C 5.679688 -4.921875 5.796875 -5.148438 5.796875 -5.453125 C 5.796875 -5.753906 5.679688 -5.976562 5.453125 -6.125 C 5.222656 -6.28125 4.890625 -6.359375 4.453125 -6.359375 Z M 4.765625 -1.34375 C 5.234375 -1.34375 5.585938 -1.414062 5.828125 -1.5625 C 6.066406 -1.71875 6.1875 -1.957031 6.1875 -2.28125 C 6.1875 -2.925781 5.710938 -3.25 4.765625 -3.25 L 2.6875 -3.25 L 2.6875 -1.34375 Z M 4.765625 -1.34375 "/></g></g></g></svg>